<svg
        id="headersvg"
        xmlns="http://www.w3.org/2000/svg"
        version="1.0"
        width="100%"
        height="48px"
        viewBox="0 0 300.000000 48.000000"
        preserveAspectRatio="xMidYMid meet"
      >
        <g
          transform="translate(0.000000,48.000000) scale(0.100000,-0.100000)"
          fill="#000000"
          stroke="none"
        >
          <path
            d="M1355 380 c-7 -12 10 -41 48 -82 14 -16 22 -28 17 -28 -15 0 -69 50 -87 81 -18 30 -37 37 -48 18 -16 -25 125 -123 146 -102 11 11 -41 123 -58 123 -6 0 -15 -5 -18 -10z"
            class="iconLeaf"
          />
          <path
            d="M1623 331 l-30 -59 24 -11 c32 -15 41 -14 117 9 51 16 66 25 66 40 0 31 -19 33 -53 4 -33 -28 -86 -54 -109 -54 -7 0 10 13 37 29 28 16 59 38 69 50 19 21 19 22 0 35 -21 16 -34 12 -34 -9 0 -15 -78 -95 -93 -95 -5 0 7 18 27 41 36 39 43 68 20 76 -6 2 -24 -23 -41 -56z"
            class="iconLeaf"
          />
          <path
            d="M1240 321 c-12 -24 6 -36 85 -57 75 -20 86 -17 29 10 -28 13 -55 29 -58 35 -4 6 -16 15 -26 21 -15 8 -21 6 -30 -9z"
            class="iconLeaf"
          />
          <path
            d="M145 245 c-33 -25 -32 -26 6 -42 21 -9 31 -8 48 3 17 13 82 15 413 13 269 -1 398 -5 411 -13 15 -8 21 -8 24 2 7 19 162 17 177 -4 11 -14 19 -13 86 4 68 18 72 20 45 26 -16 4 -49 14 -72 21 -35 11 -44 11 -53 0 -9 -10 -111 -13 -517 -14 -434 -1 -508 1 -522 13 -15 14 -20 13 -46 -9z"
            class="iconLine"
          />
          <path
            d="M1755 255 c-22 -7 -53 -16 -70 -20 -28 -7 -26 -9 35 -26 80 -23 90 -23 90 -4 0 12 17 15 89 15 62 0 91 -4 94 -12 3 -10 9 -10 23 -2 13 7 147 12 413 13 351 2 395 0 411 -14 17 -15 21 -15 51 0 l32 17 -24 19 c-16 13 -31 17 -44 12 -11 -5 -211 -9 -445 -9 -234 -1 -462 -3 -508 -4 -65 -2 -85 0 -95 12 -10 14 -18 14 -52 3z"
            class="iconLine"
          />
          <path
            d="M1425 244 c-20 -15 -20 -15 4 -33 23 -17 27 -18 49 -3 20 13 25 13 34 1 8 -11 11 -11 15 -1 4 10 10 10 29 -3 22 -14 26 -14 49 2 32 23 31 28 -5 43 -26 11 -33 10 -50 -5 -18 -16 -20 -17 -20 -2 0 10 -4 17 -10 17 -5 0 -10 -7 -10 -16 0 -15 -2 -15 -25 0 -30 19 -35 19 -60 0z"
            class="iconmiddleball"
          />
          <path
            d="M1323 191 c-79 -23 -96 -36 -82 -63 11 -20 11 -19 37 5 15 14 48 35 75 47 26 11 47 23 47 25 0 7 -8 5 -77 -14z"
            class="iconLeafDown"
          />
          <path
            d="M1669 190 c24 -11 61 -34 82 -51 33 -26 40 -28 45 -15 3 9 4 23 1 31 -6 13 -72 37 -142 50 -24 4 -22 2 14 -15z"
            class="iconLeafDown"
          />
          <path
            d="M1350 161 c-62 -39 -76 -57 -60 -76 11 -14 20 -8 62 40 27 30 55 55 61 55 6 0 -1 -12 -15 -27 -24 -26 -48 -65 -48 -77 0 -3 8 -6 18 -6 23 0 77 101 59 112 -19 12 -29 10 -77 -21z"
            class="iconLeafDown"
          />
          <path
            d="M1592 182 c26 -58 61 -112 73 -112 25 0 17 37 -16 70 -17 17 -29 34 -26 37 7 6 64 -50 89 -87 15 -23 17 -24 33 -9 16 15 15 18 -7 38 -37 35 -88 64 -120 67 -16 2 -28 0 -26 -4z"
            class="iconLeafDown"
          />
        </g>
      </svg>